<svg width="20" height="20" id="icon" viewBox="0 0 20 20" fill="none" xmlns="http://www.w3.org/2000/svg">
    <path d="M9.2513 8.87435L7.58464 10.541C7.43186 10.6938 7.25477 10.7702 7.05339 10.7702C6.852 10.7702 6.67491 10.6938 6.52214 10.541C6.36936 10.3882 6.29297 10.2112 6.29297 10.0098C6.29297 9.80838 6.36936 9.63129 6.52214 9.47852L9.48047 6.52018C9.63325 6.3674 9.80686 6.29102 10.0013 6.29102C10.1957 6.29102 10.3694 6.3674 10.5221 6.52018L13.4805 9.47852C13.6332 9.63129 13.7096 9.8049 13.7096 9.99935C13.7096 10.1938 13.6332 10.3674 13.4805 10.5202C13.3277 10.673 13.1506 10.7493 12.9492 10.7493C12.7478 10.7493 12.5707 10.673 12.418 10.5202L10.7513 8.87435V14.2493C10.7513 14.4577 10.6784 14.6348 10.5326 14.7806C10.3867 14.9264 10.2096 14.9993 10.0013 14.9993C9.79297 14.9993 9.61589 14.9264 9.47005 14.7806C9.32422 14.6348 9.2513 14.4577 9.2513 14.2493V8.87435Z" fill="#ADC63F"/></svg>