<svg xmlns="http://www.w3.org/2000/svg" id="icon" width="20" height="20" viewBox="0 0 20 20" fill="none">
  <path d="M5.74291 7.4941L8.86742 2.39843C8.9513 2.25863 9.05615 2.15727 9.18197 2.09436C9.30779 2.03145 9.4406 2 9.5804 2C9.7202 2 9.85301 2.03145 9.97883 2.09436C10.1046 2.15727 10.2095 2.25863 10.2934 2.39843L13.4179 7.4941C13.5018 7.6339 13.5437 7.78069 13.5437 7.93447C13.5437 8.08825 13.5088 8.22805 13.4389 8.35387C13.369 8.47969 13.2711 8.58104 13.1453 8.65793C13.0195 8.73482 12.8727 8.77326 12.7049 8.77326H6.45589C6.28813 8.77326 6.14134 8.73482 6.01552 8.65793C5.8897 8.58104 5.79184 8.47969 5.72194 8.35387C5.65205 8.22805 5.6171 8.08825 5.6171 7.93447C5.6171 7.78069 5.65903 7.6339 5.74291 7.4941ZM14.1938 18C13.1453 18 12.2541 17.633 11.5201 16.8991C10.7862 16.1651 10.4192 15.2739 10.4192 14.2254C10.4192 13.1769 10.7862 12.2857 11.5201 11.5518C12.2541 10.8178 13.1453 10.4509 14.1938 10.4509C15.2423 10.4509 16.1335 10.8178 16.8674 11.5518C17.6014 12.2857 17.9683 13.1769 17.9683 14.2254C17.9683 15.2739 17.6014 16.1651 16.8674 16.8991C16.1335 17.633 15.2423 18 14.1938 18ZM2.03125 16.7418V11.709C2.03125 11.4714 2.11163 11.2722 2.2724 11.1114C2.43317 10.9506 2.63239 10.8702 2.87004 10.8702H7.90281C8.14047 10.8702 8.33968 10.9506 8.50045 11.1114C8.66122 11.2722 8.7416 11.4714 8.7416 11.709V16.7418C8.7416 16.9795 8.66122 17.1787 8.50045 17.3394C8.33968 17.5002 8.14047 17.5806 7.90281 17.5806H2.87004C2.63239 17.5806 2.43317 17.5002 2.2724 17.3394C2.11163 17.1787 2.03125 16.9795 2.03125 16.7418ZM14.1938 16.3224C14.7809 16.3224 15.2772 16.1197 15.6826 15.7143C16.088 15.3089 16.2908 14.8126 16.2908 14.2254C16.2908 13.6383 16.088 13.142 15.6826 12.7366C15.2772 12.3311 14.7809 12.1284 14.1938 12.1284C13.6066 12.1284 13.1103 12.3311 12.7049 12.7366C12.2995 13.142 12.0968 13.6383 12.0968 14.2254C12.0968 14.8126 12.2995 15.3089 12.7049 15.7143C13.1103 16.1197 13.6066 16.3224 14.1938 16.3224ZM3.70884 15.903H7.06401V12.5478H3.70884V15.903ZM7.94475 7.09567H11.216L9.5804 4.45347L7.94475 7.09567Z" fill="currentColor"/>
</svg>