<svg id="icon" width="20" height="20" viewBox="0 0 20 20" fill="none" xmlns="http://www.w3.org/2000/svg">
<path d="M0.833333 15C0.597222 15 0.399306 14.9201 0.239583 14.7604C0.0798611 14.6007 0 14.4028 0 14.1667V13.6875C0 13.0903 0.305556 12.6042 0.916667 12.2292C1.52778 11.8542 2.33333 11.6667 3.33333 11.6667C3.51389 11.6667 3.6875 11.6701 3.85417 11.6771C4.02083 11.684 4.18056 11.7014 4.33333 11.7292C4.13889 12.0208 3.99306 12.3264 3.89583 12.6458C3.79861 12.9653 3.75 13.2986 3.75 13.6458V15H0.833333ZM5.83333 15C5.59722 15 5.39931 14.9201 5.23958 14.7604C5.07986 14.6007 5 14.4028 5 14.1667V13.6458C5 13.2014 5.12153 12.7951 5.36458 12.4271C5.60764 12.059 5.95139 11.7361 6.39583 11.4583C6.84028 11.1806 7.37153 10.9722 7.98958 10.8333C8.60764 10.6944 9.27778 10.625 10 10.625C10.7361 10.625 11.4132 10.6944 12.0312 10.8333C12.6493 10.9722 13.1806 11.1806 13.625 11.4583C14.0694 11.7361 14.4097 12.059 14.6458 12.4271C14.8819 12.7951 15 13.2014 15 13.6458V14.1667C15 14.4028 14.9201 14.6007 14.7604 14.7604C14.6007 14.9201 14.4028 15 14.1667 15H5.83333ZM16.25 15V13.6458C16.25 13.2847 16.2049 12.9444 16.1146 12.625C16.0243 12.3056 15.8889 12.0069 15.7083 11.7292C15.8611 11.7014 16.0174 11.684 16.1771 11.6771C16.3368 11.6701 16.5 11.6667 16.6667 11.6667C17.6667 11.6667 18.4722 11.8507 19.0833 12.2188C19.6944 12.5868 20 13.0764 20 13.6875V14.1667C20 14.4028 19.9201 14.6007 19.7604 14.7604C19.6007 14.9201 19.4028 15 19.1667 15H16.25ZM6.77083 13.3333H13.25C13.1111 13.0556 12.7257 12.8125 12.0938 12.6042C11.4618 12.3958 10.7639 12.2917 10 12.2917C9.23611 12.2917 8.53819 12.3958 7.90625 12.6042C7.27431 12.8125 6.89583 13.0556 6.77083 13.3333ZM3.33333 10.8333C2.875 10.8333 2.48264 10.6701 2.15625 10.3438C1.82986 10.0174 1.66667 9.625 1.66667 9.16667C1.66667 8.69444 1.82986 8.29861 2.15625 7.97917C2.48264 7.65972 2.875 7.5 3.33333 7.5C3.80556 7.5 4.20139 7.65972 4.52083 7.97917C4.84028 8.29861 5 8.69444 5 9.16667C5 9.625 4.84028 10.0174 4.52083 10.3438C4.20139 10.6701 3.80556 10.8333 3.33333 10.8333ZM16.6667 10.8333C16.2083 10.8333 15.816 10.6701 15.4896 10.3438C15.1632 10.0174 15 9.625 15 9.16667C15 8.69444 15.1632 8.29861 15.4896 7.97917C15.816 7.65972 16.2083 7.5 16.6667 7.5C17.1389 7.5 17.5347 7.65972 17.8542 7.97917C18.1736 8.29861 18.3333 8.69444 18.3333 9.16667C18.3333 9.625 18.1736 10.0174 17.8542 10.3438C17.5347 10.6701 17.1389 10.8333 16.6667 10.8333ZM10 10C9.30556 10 8.71528 9.75694 8.22917 9.27083C7.74306 8.78472 7.5 8.19444 7.5 7.5C7.5 6.79167 7.74306 6.19792 8.22917 5.71875C8.71528 5.23958 9.30556 5 10 5C10.7083 5 11.3021 5.23958 11.7812 5.71875C12.2604 6.19792 12.5 6.79167 12.5 7.5C12.5 8.19444 12.2604 8.78472 11.7812 9.27083C11.3021 9.75694 10.7083 10 10 10ZM10 8.33333C10.2361 8.33333 10.434 8.25347 10.5938 8.09375C10.7535 7.93403 10.8333 7.73611 10.8333 7.5C10.8333 7.26389 10.7535 7.06597 10.5938 6.90625C10.434 6.74653 10.2361 6.66667 10 6.66667C9.76389 6.66667 9.56597 6.74653 9.40625 6.90625C9.24653 7.06597 9.16667 7.26389 9.16667 7.5C9.16667 7.73611 9.24653 7.93403 9.40625 8.09375C9.56597 8.25347 9.76389 8.33333 10 8.33333Z" fill="black"/>
</svg>
