<svg xmlns="http://www.w3.org/2000/svg" width="95" height="20" viewBox="0 0 95 20" fill="none">
  <path d="M83.4413 14.1503C83.8 13.9247 84.1965 13.8266 84.6144 13.8702C85.075 13.9004 85.4769 14.1338 85.8177 14.4768C86.2693 14.9313 86.7352 15.2749 87.2141 15.5158C87.6536 15.737 88.2319 15.8629 88.9726 15.8648C89.1951 15.8492 89.4434 15.8191 89.7183 15.7734C89.9277 15.7244 90.0991 15.6327 90.2432 15.499C90.3372 15.4109 90.4279 15.2441 90.4279 14.8978C90.4279 14.6607 90.3547 14.5173 90.2309 14.4093C90.0416 14.2442 89.7685 14.0871 89.3911 13.9504L89.3879 13.9492L89.3847 13.948C89.0018 13.8035 88.5665 13.6653 88.0775 13.5341L88.0719 13.5326L88.0665 13.531C87.5405 13.3773 86.9984 13.2068 86.44 13.0195L86.4377 13.0187L86.4354 13.0179C85.8641 12.8203 85.3337 12.5674 84.8459 12.2583L84.8401 12.2546L84.8345 12.2508C84.3145 11.902 83.8923 11.4467 83.5694 10.8922C83.2257 10.3021 83.0711 9.58892 83.0711 8.78257C83.0711 7.83585 83.3371 7.00067 83.8882 6.30738C84.4137 5.64621 85.087 5.14078 85.8961 4.78913L85.9 4.78745C86.7175 4.44006 87.5731 4.26608 88.4627 4.26608C89.0242 4.26608 89.606 4.33872 90.2069 4.4805C90.8231 4.60893 91.4117 4.82794 91.9714 5.13612C92.5535 5.43948 93.0459 5.84924 93.4433 6.36356L93.4479 6.36941L93.4522 6.37538C93.699 6.71407 93.8359 7.11027 93.8771 7.54523C93.9317 8.12266 93.6536 8.60036 93.2093 8.96233L93.207 8.96423C92.8521 9.24996 92.4329 9.37928 91.977 9.35634L91.9641 9.35569L91.9512 9.35439C91.52 9.31099 91.1331 9.15391 90.8213 8.86429L90.7892 8.83446L90.7625 8.79966C90.5374 8.50652 90.225 8.26176 89.8065 8.07295L89.8033 8.07153L89.8002 8.07006C89.4125 7.88889 88.9458 7.79027 88.3873 7.79027C88.1817 7.79027 87.944 7.81797 87.6717 7.87888L87.6605 7.88138L87.6492 7.88338C87.4654 7.91603 87.3048 7.99559 87.1586 8.13147L87.1503 8.13913L87.1417 8.14644C87.0874 8.19276 86.9996 8.31531 86.9996 8.65622C86.9996 8.91356 87.076 9.07843 87.2044 9.20201C87.3914 9.363 87.6587 9.51623 88.0251 9.65013C88.4508 9.78179 88.9014 9.91369 89.3771 10.0458C89.8929 10.1843 90.4161 10.3484 90.9467 10.5378C91.5072 10.738 92.0257 11.003 92.5002 11.3337C93.0035 11.6844 93.4077 12.1411 93.7122 12.6953C94.0371 13.2693 94.1807 13.9724 94.1807 14.7715C94.1807 15.7416 93.894 16.5961 93.3068 17.3053C92.7492 17.9788 92.0527 18.4912 91.2262 18.8424L91.2217 18.8443L91.2171 18.8462C90.4043 19.1734 89.5688 19.3385 88.7138 19.3385C87.6662 19.3385 86.6222 19.1596 85.5838 18.8054L85.5801 18.8041L85.5764 18.8028C84.4886 18.4131 83.5856 17.7339 82.8739 16.7789L82.8702 16.774L82.8667 16.769C82.6146 16.4138 82.5238 15.9856 82.5443 15.531C82.5712 14.9347 82.9297 14.4798 83.4365 14.1533L83.4389 14.1518L83.4413 14.1503Z" fill="#D8E0E8"/>
  <path fill-rule="evenodd" clip-rule="evenodd" d="M77.7122 4.84497C76.8886 4.45855 76.0105 4.26608 75.0836 4.26608C73.8846 4.26608 72.7491 4.57813 71.6851 5.19523C70.6116 5.81783 69.745 6.71257 69.0839 7.86335L69.0826 7.86564C68.4255 9.02304 68.1101 10.4062 68.1101 11.9918C68.1101 13.3663 68.4035 14.6159 69.0014 15.7283L69.003 15.7312L69.0045 15.7341C69.6205 16.8463 70.4918 17.7308 71.6083 18.3832L71.6125 18.3857L71.6169 18.3881C72.7616 19.0282 74.0904 19.3385 75.5857 19.3385C76.4793 19.3385 77.3479 19.1944 78.189 18.9062L78.1937 18.9046L78.1983 18.903C79.0146 18.6058 79.6851 18.253 80.1833 17.8308C80.7301 17.396 81.0778 16.8474 81.0778 16.1866C81.0778 15.7046 80.8931 15.2812 80.5549 14.938C80.2153 14.5754 79.7746 14.3992 79.2767 14.3992C78.91 14.3992 78.5456 14.5031 78.1902 14.6819L78.1819 14.6861L78.1738 14.6906C77.9771 14.7986 77.7584 14.9308 77.5185 15.0858C77.3585 15.1842 77.1183 15.2849 76.7795 15.3779C76.4748 15.4616 76.0331 15.5111 75.4351 15.5111C74.8546 15.5111 74.3043 15.3739 73.7776 15.0956C73.2782 14.8067 72.8577 14.3943 72.517 13.845C72.4331 13.6983 72.3596 13.5417 72.2971 13.3749H79.9044C80.4247 13.3749 80.8949 13.2076 81.2922 12.8744C81.7096 12.5244 81.9335 12.056 81.9561 11.5082L81.9566 11.4973V11.4864C81.9566 10.5082 81.7675 9.5787 81.3874 8.70297C81.029 7.8387 80.5345 7.07752 79.9036 6.4238C79.2731 5.75356 78.5417 5.22641 77.7122 4.84497ZM72.327 9.80014H77.6352C77.5688 9.57452 77.4559 9.36454 77.2935 9.16676L77.2892 9.16143L77.2849 9.15598C77.0372 8.83746 76.7191 8.58474 76.3207 8.39857L76.3103 8.39375L76.3003 8.38848C75.9238 8.19203 75.5208 8.09351 75.0836 8.09351C74.628 8.09351 74.2114 8.15458 73.8306 8.2725C73.4755 8.38247 73.1729 8.56562 72.9157 8.82451C72.6861 9.05557 72.4859 9.37448 72.327 9.80014Z" fill="#D8E0E8"/>
  <path d="M58.9889 5.1323C59.3765 4.72221 59.874 4.51878 60.4419 4.51878C61.0097 4.51878 61.5072 4.72221 61.8948 5.1323C62.0544 5.29405 62.18 5.47367 62.2725 5.66831C62.5617 5.3907 62.8785 5.15605 63.2228 4.96614C63.6338 4.72276 64.073 4.54465 64.5386 4.43217C64.9958 4.32175 65.455 4.26608 65.9155 4.26608C66.5203 4.26608 67.062 4.44081 67.5034 4.81635C67.9503 5.18228 68.2188 5.6584 68.2188 6.23034C68.2188 6.86672 68.0556 7.44558 67.6158 7.83611L67.6092 7.84201L67.6023 7.84768C67.2346 8.15243 66.8103 8.32094 66.3424 8.32094C65.9589 8.32094 65.5942 8.24949 65.2549 8.10013L65.2492 8.09758L65.2435 8.0949C65.0741 8.01538 64.8591 7.96716 64.5848 7.96716C64.3725 7.96716 64.1386 8.0202 63.8786 8.14416L63.8729 8.14687L63.8672 8.14944C63.6488 8.24711 63.4241 8.41345 63.1967 8.66944C62.9941 8.91589 62.8142 9.23606 62.6645 9.64131C62.5388 10.0093 62.4689 10.4691 62.4689 11.0316V17.0205C62.4689 17.5849 62.2807 18.0863 61.9 18.4921L61.8949 18.4975L61.8896 18.5028C61.499 18.8959 61.0027 19.0858 60.4419 19.0858C59.881 19.0858 59.3847 18.8959 58.9941 18.5028L58.9888 18.4975L58.9837 18.4921C58.603 18.0863 58.4148 17.5849 58.4148 17.0205V6.58411C58.4148 6.02215 58.6018 5.52463 58.9889 5.1323Z" fill="#D8E0E8"/>
  <path fill-rule="evenodd" clip-rule="evenodd" d="M52.7085 18.4921C52.5735 18.3482 52.4626 18.1922 52.3758 18.0257C52.3248 18.0664 52.2725 18.1068 52.2191 18.1471C51.7741 18.4831 51.2545 18.7656 50.6664 18.9988L50.6624 19.0004L50.6584 19.0019C50.0581 19.2285 49.4096 19.3385 48.718 19.3385C47.4701 19.3385 46.3275 19.0185 45.3036 18.3744L45.3007 18.3727L45.298 18.3709C44.2815 17.7132 43.4771 16.819 42.8853 15.6999L42.8829 15.6955L42.8807 15.691C42.3028 14.5461 42.0208 13.2498 42.0208 11.8149C42.0208 10.3645 42.3023 9.06658 42.8822 7.93582L42.8836 7.93301C43.4738 6.79917 44.2691 5.90252 45.2721 5.25943C46.2785 4.59729 47.398 4.26608 48.6176 4.26608C49.3903 4.26608 50.1121 4.38374 50.778 4.62573C51.3594 4.83705 51.8785 5.10344 52.3299 5.42857C52.423 5.22892 52.5505 5.04491 52.7137 4.87958C53.1012 4.4695 53.5988 4.26608 54.1666 4.26608C54.7275 4.26608 55.2237 4.45598 55.6143 4.84911C56.0089 5.2462 56.1937 5.75629 56.1937 6.33141V17.0205C56.1937 17.5849 56.0055 18.0863 55.6247 18.4921L55.6196 18.4975L55.6143 18.5028C55.2237 18.8959 54.7275 19.0858 54.1666 19.0858C53.6057 19.0858 53.1095 18.8959 52.7188 18.5028L52.7136 18.4975L52.7085 18.4921ZM49.0947 15.5111C49.7401 15.5111 50.2816 15.3502 50.7393 15.0431C51.2084 14.7284 51.5747 14.2983 51.8381 13.7386L51.8405 13.7335L51.843 13.7286C52.1212 13.1686 52.2651 12.5341 52.2651 11.8149C52.2651 11.077 52.1204 10.4345 51.843 9.87603L51.8405 9.87104L51.8381 9.86601C51.5747 9.30628 51.2084 8.8762 50.7393 8.56146C50.2816 8.2544 49.7401 8.09351 49.0947 8.09351C48.4686 8.09351 47.9348 8.25306 47.4751 8.56146C47.0049 8.87699 46.629 9.30887 46.3488 9.87108C46.0864 10.4307 45.9493 11.0751 45.9493 11.8149C45.9493 12.5362 46.0857 13.1725 46.3488 13.7335C46.629 14.2957 47.0049 14.7276 47.4751 15.0431C47.9348 15.3515 48.4686 15.5111 49.0947 15.5111Z" fill="#D8E0E8"/>
  <path d="M33.0458 4.77153H33.6802V3.67815C33.6802 3.1137 33.8689 2.61425 34.2595 2.22112C34.6608 1.81731 35.1624 1.61282 35.7324 1.61282C36.2978 1.61282 36.7919 1.81507 37.1658 2.23203C37.5491 2.62347 37.7344 3.11891 37.7344 3.67815V4.77153H38.9965C39.527 4.77153 39.9971 4.95508 40.3689 5.32929C40.7408 5.7035 40.9231 6.17661 40.9231 6.71051C40.9231 7.23436 40.7362 7.69688 40.3689 8.06647L40.363 8.07244L40.3569 8.07822C39.9831 8.43089 39.5169 8.59896 38.9965 8.59896H37.7344V14.9232C37.7344 15.0827 37.7602 15.1784 37.7858 15.233C37.8302 15.2944 37.8749 15.329 37.9196 15.3505C38.0211 15.3899 38.1278 15.4101 38.2433 15.4101C38.378 15.4101 38.4907 15.3888 38.5866 15.3526C38.8307 15.2347 39.0969 15.1826 39.3731 15.1826C39.7897 15.1826 40.1323 15.3841 40.3911 15.6882C40.6991 16.029 40.8227 16.4702 40.8227 16.9447C40.8227 17.6553 40.414 18.1917 39.7884 18.5583C39.2062 18.9091 38.5707 19.0859 37.8917 19.0859C37.5161 19.0859 37.1024 19.0589 36.652 19.0066L36.6406 19.0053L36.6294 19.0035C36.1472 18.9258 35.6868 18.761 35.2503 18.5127L35.2384 18.5059L35.2269 18.4986C34.7685 18.2049 34.4027 17.7764 34.1185 17.2426C33.8108 16.6645 33.6802 15.9187 33.6802 15.0495V8.59896H33.0458C32.5153 8.59896 32.0452 8.41541 31.6733 8.0412C31.3015 7.66699 31.1191 7.19388 31.1191 6.65997C31.1191 6.13848 31.305 5.67957 31.6793 5.32335C32.0502 4.95313 32.5181 4.77153 33.0458 4.77153Z" fill="#D8E0E8"/>
  <path d="M29.59 18.4921C29.9708 18.0863 30.159 17.5849 30.159 17.0205V10.5514C30.159 9.45137 30.0291 8.44222 29.7629 7.52866C29.5019 6.5575 29.0017 5.76156 28.2575 5.16528C27.4917 4.5379 26.4175 4.26608 25.1189 4.26608C24.4956 4.26608 23.9076 4.36728 23.3599 4.57525C22.831 4.75958 22.3505 5.01014 21.922 5.32892C21.7145 5.48322 21.5195 5.64518 21.3373 5.8149C21.2423 5.56333 21.0962 5.33399 20.8973 5.13242C20.5098 4.72224 20.0122 4.51878 19.4443 4.51878C18.8764 4.51878 18.3789 4.72223 17.9913 5.13239C17.6042 5.5247 17.4172 6.02219 17.4172 6.58411V17.0205C17.4172 17.5849 17.6054 18.0863 17.9862 18.4921L17.9913 18.4975L17.9965 18.5028C18.3872 18.8959 18.8834 19.0858 19.4443 19.0858C20.0052 19.0858 20.5014 18.8959 20.8921 18.5028L20.8973 18.4975L20.9024 18.4921C21.2832 18.0863 21.4714 17.5849 21.4714 17.0205V10.5514C21.4714 10.0732 21.5712 9.66428 21.7591 9.31191C21.9638 8.94225 22.2475 8.64893 22.6187 8.4268C22.9914 8.2134 23.4656 8.09351 24.0643 8.09351C24.6933 8.09351 25.0955 8.2187 25.34 8.39762C25.6122 8.59687 25.7977 8.86081 25.9003 9.20937L25.9036 9.22072L25.9075 9.2319C26.0358 9.60505 26.1048 10.0426 26.1048 10.5514V17.0205C26.1048 17.5849 26.293 18.0863 26.6738 18.4921L26.6789 18.4975L26.6841 18.5028C27.0748 18.8959 27.571 19.0858 28.1319 19.0858C28.6927 19.0858 29.189 18.8959 29.5796 18.5028L29.5849 18.4975L29.59 18.4921Z" fill="#D8E0E8"/>
  <path fill-rule="evenodd" clip-rule="evenodd" d="M12.7967 17.8574L12.796 17.8555L11.6289 15.1185H4.82886L3.66581 17.8714C3.51618 18.2734 3.27479 18.6091 2.9375 18.8581L2.93488 18.86L2.93223 18.8619C2.61074 19.093 2.24575 19.2122 1.8513 19.2122C1.30547 19.2122 0.802163 19.0571 0.453587 18.6524C0.144897 18.2939 0 17.8563 0 17.3743C0 17.1643 0.0347773 16.9533 0.0972792 16.7436L0.104997 16.7177L6.36605 1.58472C6.53385 1.1643 6.79501 0.817356 7.15562 0.567842L7.16163 0.56369L7.16774 0.559707C7.53804 0.318569 7.94799 0.208636 8.38171 0.248421C8.78078 0.253918 9.14936 0.38018 9.47536 0.616291C9.83633 0.848388 10.0925 1.18113 10.2447 1.59019L16.4203 16.3955L16.4231 16.4029C16.5239 16.6666 16.5833 16.9332 16.5833 17.1974C16.5833 17.7791 16.385 18.2894 15.9622 18.6705C15.5939 19.0173 15.1537 19.2122 14.6567 19.2122C14.2408 19.2122 13.8575 19.0816 13.5203 18.8328L13.5133 18.8277L13.5065 18.8223C13.1929 18.5743 12.9594 18.2455 12.7967 17.8574ZM6.49928 11.1647L8.21317 7.10807L9.94296 11.1647H6.49928Z" fill="#D8E0E8"/>
</svg>