<svg xmlns="http://www.w3.org/2000/svg" width="33" height="32" viewBox="0 0 33 32" fill="none">
  <path fill-rule="evenodd" clip-rule="evenodd" d="M8.71632 22.5652C9.13387 22.3465 9.6497 22.5076 9.86847 22.925L12.6912 28.3116C12.91 28.7291 12.7488 29.2448 12.3313 29.4635C11.9137 29.6822 11.3979 29.5211 11.1791 29.1036L8.35638 23.7171C8.13762 23.2996 8.29877 22.7839 8.71632 22.5652Z" fill="#C0D466"/>
  <path fill-rule="evenodd" clip-rule="evenodd" d="M7.25476 7.89333L7.36842 7.04759C6.90123 6.98484 6.47161 7.31261 6.40884 7.77969C6.34607 8.2467 6.6738 8.67616 7.14087 8.73903L7.14225 8.73922L7.15015 8.74032L7.18548 8.74538C7.21748 8.75004 7.26603 8.75732 7.32926 8.76736C7.45579 8.78744 7.64076 8.81851 7.86934 8.86177C8.32753 8.94848 8.95574 9.08317 9.63708 9.27477C11.0512 9.67244 12.5026 10.2648 13.255 11.0454C13.9619 11.7789 14.0958 12.6248 14.0412 13.3384C14.0137 13.6978 13.9382 14.0114 13.8691 14.2347C13.8348 14.3454 13.803 14.4313 13.7811 14.4865C13.7702 14.514 13.7619 14.5337 13.7571 14.5448L13.7527 14.5546L13.7534 14.5532M7.25476 7.89333C7.36842 7.04759 7.36842 7.04759 7.36842 7.04759L7.37043 7.04787L7.37418 7.04838L7.38681 7.05013C7.39747 7.05162 7.4126 7.05377 7.43194 7.05659C7.47064 7.06224 7.52625 7.07058 7.5969 7.0818C7.73815 7.10421 7.93985 7.13814 8.18683 7.18488C8.67975 7.27816 9.35826 7.42347 10.0993 7.63186C11.53 8.03419 13.3859 8.72177 14.4842 9.86118C15.6278 11.0477 15.8226 12.432 15.7433 13.4686C15.7038 13.9843 15.5968 14.4259 15.4999 14.7389C15.4512 14.8963 15.4043 15.0239 15.3682 15.1151C15.3501 15.1608 15.3346 15.1976 15.3228 15.2247C15.3169 15.2382 15.312 15.2494 15.308 15.258L15.303 15.2691L15.3011 15.2732L15.3003 15.2749L15.2999 15.2757C15.2999 15.2757 15.2996 15.2764 14.527 14.9137L15.2996 15.2764C15.0992 15.703 14.5909 15.8864 14.1642 15.6861C13.7387 15.4864 13.5551 14.9804 13.7527 14.5546" fill="#C0D466"/>
  <path fill-rule="evenodd" clip-rule="evenodd" d="M10.0924 5.74675C9.62854 5.66417 9.3193 5.22134 9.40168 4.75745C9.48409 4.29342 9.92714 3.98405 10.3913 4.06644L10.2421 4.90663C10.3913 4.06644 10.3918 4.06653 10.3918 4.06653L10.3938 4.0669L10.3979 4.06763L10.4105 4.06995C10.4208 4.07188 10.4351 4.07458 10.453 4.0781C10.4889 4.08514 10.5397 4.09544 10.6041 4.10937C10.7328 4.1372 10.9162 4.17955 11.1436 4.23921C11.5979 4.35839 12.2309 4.54747 12.9571 4.82937C14.401 5.3899 16.2572 6.33428 17.7997 7.86457C19.4554 9.50711 19.8833 11.7376 19.9335 13.4431C19.959 14.3084 19.8886 15.075 19.8123 15.6254C19.7741 15.9014 19.734 16.1253 19.7028 16.2826C19.6873 16.3614 19.6739 16.4236 19.6641 16.4675C19.6592 16.4895 19.6552 16.5069 19.6522 16.5195L19.6486 16.5349L19.6474 16.5398L19.6469 16.5416L19.6467 16.5423C19.6467 16.5423 19.6466 16.5429 18.8178 16.3388L19.6466 16.5429C19.5339 17.0005 19.0714 17.2801 18.6137 17.1674C18.1564 17.0548 17.8768 16.5931 17.9888 16.1359L17.9891 16.1348L17.9904 16.1291C17.992 16.1225 17.9946 16.1113 17.998 16.0958C18.005 16.0646 18.0155 16.0159 18.0282 15.9515C18.0537 15.8226 18.0882 15.6311 18.1214 15.3911C18.1882 14.9093 18.2492 14.2406 18.2272 13.4933C18.1825 11.9736 17.8007 10.2698 16.5974 9.07604C15.2809 7.77001 13.6588 6.93255 12.3392 6.42032C11.6837 6.16585 11.1137 5.99581 10.7103 5.88998C10.5089 5.83714 10.3498 5.8005 10.2433 5.77748C10.1901 5.76597 10.1501 5.75788 10.1245 5.75288C10.1118 5.75038 10.1027 5.74865 10.0973 5.74765L10.0924 5.74675Z" fill="#C0D466"/>
  <path fill-rule="evenodd" clip-rule="evenodd" d="M32.1598 4.42222C32.6055 4.57568 32.8423 5.06132 32.6888 5.50692L32.1785 6.98835C32.178 6.9897 32.1776 6.99103 32.1771 6.99237L29.3998 15.0542C29.2463 15.4998 28.7606 15.7366 28.3149 15.5832C27.8692 15.4297 27.6323 14.9441 27.7858 14.4985L30.3936 6.92877C30.3205 6.85698 30.237 6.77662 30.1443 6.68986C29.7608 6.33135 29.2282 5.87295 28.6213 5.45949C28.0088 5.0422 27.3568 4.69556 26.7326 4.52593C26.1153 4.35815 25.5843 4.37754 25.1342 4.60296C23.7691 5.28653 23.0543 5.73491 22.5723 6.10943C22.2659 6.34744 22.0521 6.55415 21.8065 6.80299C23.1245 8.86191 23.5839 11.495 23.7278 13.5927C23.8084 14.7686 23.7923 15.8178 23.7562 16.5734C23.7381 16.9518 23.7149 17.258 23.696 17.4715C23.6866 17.5783 23.6782 17.662 23.6721 17.72C23.669 17.749 23.6665 17.7716 23.6647 17.7875L23.6625 17.8062L23.6619 17.8117L23.6616 17.8141C23.6616 17.8141 23.6615 17.8146 22.8416 17.7149L23.6615 17.8146C23.6046 18.2824 23.1792 18.6156 22.7112 18.5587C22.2434 18.5018 21.9102 18.0766 21.9669 17.6089L21.9672 17.6066L21.9686 17.5944C21.9699 17.5829 21.9719 17.5648 21.9745 17.5404C21.9797 17.4917 21.9871 17.4178 21.9956 17.3212C22.0127 17.1281 22.0342 16.8449 22.0511 16.4919C22.0849 15.7848 22.0998 14.8038 22.0247 13.7094C21.872 11.4825 21.3563 8.94685 20.024 7.23437C18.8625 5.74132 17.2443 4.77633 15.8749 4.18143C15.1957 3.88636 14.5922 3.68861 14.1609 3.56524C13.9456 3.50366 13.7743 3.46091 13.6593 3.43402C13.6018 3.42058 13.5584 3.41113 13.5307 3.40528C13.5168 3.40235 13.5069 3.40033 13.5011 3.39917L13.4958 3.39812C13.0331 3.30965 12.7295 2.86294 12.8177 2.40015C12.906 1.93721 13.353 1.63347 13.816 1.72174L13.6562 2.55997C13.816 1.72174 13.8166 1.72184 13.8166 1.72184L13.8188 1.72228L13.8233 1.72314L13.837 1.72587C13.8483 1.72814 13.8638 1.73131 13.8834 1.73544C13.9225 1.7437 13.9779 1.7558 14.0478 1.77214C14.1875 1.8048 14.386 1.85447 14.6305 1.92441C15.1187 2.06407 15.7946 2.28573 16.5552 2.61615C17.8493 3.17835 19.4316 4.07408 20.7411 5.45414C20.9708 5.22806 21.2204 4.99834 21.5248 4.76184C22.1337 4.28871 22.9608 3.78248 24.3697 3.07699C25.3065 2.60788 26.2965 2.63882 27.1804 2.87903C28.0575 3.11739 28.8869 3.57519 29.5826 4.04916C30.1281 4.42081 30.6135 4.81779 31.002 5.16255L31.0748 4.95116C31.2283 4.50556 31.7141 4.26875 32.1598 4.42222Z" fill="#C0D466"/>
  <path fill-rule="evenodd" clip-rule="evenodd" d="M32.7159 20.3482C32.801 20.611 32.7535 20.8987 32.5886 21.1203L30.4992 23.9273C30.2178 24.3054 29.6831 24.3838 29.305 24.1025C28.9268 23.8211 28.8484 23.2865 29.1298 22.9084L30.5026 21.0641L8.28663 14.0635C7.83704 13.9219 7.58746 13.4426 7.72916 12.9932C7.87086 12.5437 8.35019 12.2941 8.79978 12.4358L32.1604 19.797C32.4239 19.88 32.6309 20.0854 32.7159 20.3482Z" fill="#C0D466"/>
  <path fill-rule="evenodd" clip-rule="evenodd" d="M24.98 10.4768C25.4384 10.367 25.899 10.6496 26.0088 11.1079L27.7962 18.5706C27.8543 18.813 27.8034 19.0687 27.657 19.2704L22.6453 26.1778C22.4174 26.492 22.0061 26.6128 21.6444 26.4718L10.9436 22.3004C10.5044 22.1292 10.2872 21.6345 10.4584 21.1954C10.6297 20.7563 11.1245 20.5392 11.5637 20.7104L21.6505 24.6424L26.0446 18.5862L24.3487 11.5054C24.2389 11.047 24.5216 10.5865 24.98 10.4768Z" fill="#C0D466"/>
  <path fill-rule="evenodd" clip-rule="evenodd" d="M8.10493 14.0023C5.73255 13.1995 3.15848 14.4715 2.35557 16.8434C2.06079 17.7142 2.04564 18.6096 2.26096 19.4356C2.37984 19.8917 2.10643 20.3577 1.65028 20.4766C1.19413 20.5954 0.727973 20.3221 0.60909 19.866C0.312335 18.7276 0.333824 17.4921 0.738616 16.2963C1.84376 13.0316 5.38678 11.2808 8.65217 12.3857C11.9176 13.4906 13.6688 17.0328 12.5636 20.2975C12.0085 21.9373 10.8368 23.1961 9.39658 23.9014C8.97324 24.1087 8.46197 23.9336 8.25463 23.5104C8.04728 23.0871 8.22238 22.576 8.64572 22.3687C9.69417 21.8553 10.5433 20.9421 10.9467 19.7503C11.7496 17.3785 10.4773 14.805 8.10493 14.0023Z" fill="#C0D466"/>
  <path fill-rule="evenodd" clip-rule="evenodd" d="M28.6461 24.9034C25.9314 27.7013 22.1308 29.44 17.924 29.44C9.6747 29.44 2.98733 22.7541 2.98733 14.5067C2.98733 9.23072 5.72397 4.5938 9.85547 1.93738C4.08343 4.21741 0 9.84527 0 16.4267C0 25.0276 6.97397 32 15.5768 32C21.0527 32 25.8686 29.1751 28.6461 24.9034Z" fill="#D8E0E8"/>
  <ellipse cx="2.13364" cy="2.13351" rx="2.13364" ry="2.13351" transform="matrix(0.798513 -0.601978 0.602148 0.798384 23.4717 18.3555)" fill="#D8E0E8"/>
  <ellipse cx="2.13364" cy="2.13351" rx="2.13364" ry="2.13351" transform="matrix(0.798513 -0.601977 0.602149 0.798384 8.53516 14.5154)" fill="#D8E0E8"/>
  <ellipse cx="2.13364" cy="2.13351" rx="2.13364" ry="2.13351" transform="matrix(0.798513 -0.601977 0.602149 0.798384 8.53516 14.5154)" fill="#D8E0E8"/>
  <ellipse cx="1.49355" cy="1.49345" rx="1.49355" ry="1.49345" transform="matrix(0.798513 -0.601978 0.602148 0.798384 11.5225 1.79816)" fill="#D8E0E8"/>
  <ellipse cx="21.7647" cy="25.1733" rx="1.70705" ry="1.70667" fill="#D8E0E8"/>
  <ellipse cx="11.5225" cy="21.3333" rx="1.70705" ry="1.70667" fill="#D8E0E8"/>
  <ellipse cx="1.49355" cy="1.49345" rx="1.49355" ry="1.49345" transform="matrix(0.798513 -0.601977 0.602149 0.798384 8.1084 4.35815)" fill="#D8E0E8"/>
  <path d="M8.40559 6.73904C8.90225 7.39755 8.77092 8.33392 8.11226 8.83047C7.4536 9.32702 6.51702 9.19572 6.02036 8.5372C5.5237 7.87868 5.65503 6.94232 6.3137 6.44577C6.97236 5.94922 7.90894 6.08052 8.40559 6.73904Z" fill="#D8E0E8"/>
</svg>