<svg xmlns="http://www.w3.org/2000/svg" width="33" height="32" viewBox="0 0 33 32" fill="none">
  <path fill-rule="evenodd" clip-rule="evenodd" d="M8.59979 22.2683C9.01176 22.0524 9.5207 22.2114 9.73653 22.6234L12.5215 27.9391C12.7374 28.3511 12.5784 28.86 12.1664 29.0758C11.7544 29.2917 11.2455 29.1327 11.0297 28.7207L8.24467 23.405C8.02883 22.993 8.18783 22.4841 8.59979 22.2683Z" fill="#5E7417"/>
  <path fill-rule="evenodd" clip-rule="evenodd" d="M7.15779 7.78947L7.26993 6.95486C6.80899 6.89293 6.38511 7.21639 6.32318 7.67733C6.26126 8.13819 6.5846 8.562 7.04542 8.62404L7.04679 8.62423L7.05458 8.62531L7.08944 8.63031C7.12101 8.63491 7.16891 8.64209 7.2313 8.652C7.35613 8.67181 7.53862 8.70248 7.76415 8.74517C8.21621 8.83074 8.83602 8.96366 9.50824 9.15274C10.9034 9.54517 12.3354 10.1298 13.0777 10.9001C13.7752 11.6239 13.9073 12.4587 13.8534 13.1629C13.8263 13.5175 13.7518 13.827 13.6836 14.0474C13.6498 14.1566 13.6184 14.2414 13.5968 14.2959C13.5861 14.3231 13.5779 14.3425 13.5731 14.3534L13.5688 14.3631L13.5695 14.3618M7.15779 7.78947C7.26993 6.95486 7.26993 6.95486 7.26993 6.95486L7.27191 6.95513L7.27561 6.95564L7.28807 6.95736C7.29859 6.95884 7.31351 6.96096 7.3326 6.96374C7.37078 6.96931 7.42565 6.97755 7.49536 6.98862C7.63471 7.01074 7.83371 7.04422 8.07739 7.09034C8.56372 7.1824 9.23315 7.32579 9.96428 7.53144C11.3758 7.92847 13.207 8.60701 14.2905 9.73143C15.4188 10.9023 15.611 12.2684 15.5328 13.2914C15.4938 13.8003 15.3882 14.236 15.2927 14.5449C15.2446 14.7003 15.1983 14.8262 15.1627 14.9162C15.1448 14.9613 15.1295 14.9976 15.1179 15.0243C15.1121 15.0377 15.1072 15.0487 15.1033 15.0573L15.0983 15.0682L15.0965 15.0723L15.0957 15.074L15.0953 15.0747C15.0953 15.0747 15.095 15.0754 14.3327 14.7175L15.095 15.0754C14.8973 15.4964 14.3958 15.6774 13.9748 15.4797C13.555 15.2826 13.3739 14.7833 13.5688 14.3631" fill="#5E7417"/>
  <path fill-rule="evenodd" clip-rule="evenodd" d="M9.95751 5.67114C9.49981 5.58965 9.19471 5.15264 9.27599 4.69485C9.35729 4.23693 9.79442 3.93163 10.2523 4.01293L10.1051 4.84207C10.2523 4.01293 10.2528 4.01302 10.2528 4.01302L10.2549 4.01338L10.2589 4.01411L10.2713 4.0164C10.2815 4.0183 10.2955 4.02097 10.3132 4.02444C10.3487 4.03139 10.3988 4.04156 10.4623 4.0553C10.5893 4.08276 10.7703 4.12456 10.9946 4.18343C11.4428 4.30105 12.0673 4.48763 12.7838 4.76583C14.2085 5.31898 16.0398 6.25094 17.5617 7.76109C19.1952 9.38201 19.6174 11.5832 19.6669 13.2662C19.692 14.1201 19.6227 14.8767 19.5474 15.4198C19.5096 15.6922 19.47 15.9131 19.4393 16.0684C19.424 16.1461 19.4108 16.2075 19.4011 16.2508C19.3963 16.2725 19.3923 16.2897 19.3894 16.3022L19.3858 16.3173L19.3846 16.3222L19.3842 16.324L19.384 16.3247C19.384 16.3247 19.3839 16.3253 18.5662 16.1239L19.3839 16.3253C19.2726 16.7768 18.8164 17.0528 18.3648 16.9415C17.9136 16.8304 17.6377 16.3748 17.7482 15.9236L17.7485 15.9225L17.7498 15.9169C17.7514 15.9104 17.7539 15.8993 17.7574 15.884C17.7642 15.8532 17.7746 15.8052 17.7871 15.7416C17.8123 15.6144 17.8463 15.4255 17.8791 15.1886C17.945 14.7131 18.0051 14.0533 17.9834 13.3157C17.9393 11.8161 17.5627 10.1347 16.3754 8.95662C15.0765 7.66777 13.4761 6.84134 12.1742 6.33584C11.5275 6.08472 10.9651 5.91692 10.5671 5.81248C10.3684 5.76033 10.2114 5.72418 10.1064 5.70146C10.0539 5.69011 10.0144 5.68212 9.98919 5.67718C9.9766 5.67472 9.96759 5.67301 9.96232 5.67203L9.95751 5.67114Z" fill="#5E7417"/>
  <path fill-rule="evenodd" clip-rule="evenodd" d="M31.7296 4.36403C32.1694 4.51548 32.4031 4.99473 32.2516 5.43446L31.7481 6.8964C31.7476 6.89773 31.7472 6.89905 31.7467 6.90037L29.0066 14.8562C28.8552 15.2959 28.3759 15.5296 27.9362 15.3781C27.4964 15.2267 27.2627 14.7474 27.4142 14.3077L29.987 6.8376C29.915 6.76675 29.8326 6.68745 29.7411 6.60184C29.3628 6.24804 28.8372 5.79568 28.2385 5.38765C27.6342 4.97586 26.9909 4.63378 26.3751 4.46638C25.766 4.30081 25.2421 4.31995 24.798 4.54239C23.4512 5.21697 22.746 5.65945 22.2704 6.02904C21.9681 6.26393 21.7572 6.46791 21.5148 6.71348C22.8153 8.7453 23.2685 11.3437 23.4104 13.4138C23.49 14.5742 23.4741 15.6097 23.4385 16.3553C23.4206 16.7287 23.3977 17.031 23.3791 17.2416C23.3698 17.347 23.3615 17.4296 23.3555 17.4868C23.3524 17.5155 23.35 17.5378 23.3482 17.5534L23.346 17.5719L23.3454 17.5773L23.3451 17.5797C23.3451 17.5797 23.3451 17.5802 22.5361 17.4818L23.3451 17.5802C23.2889 18.0418 22.8692 18.3706 22.4075 18.3145C21.9459 18.2584 21.6172 17.8388 21.6731 17.3772L21.6734 17.3749L21.6748 17.3629C21.6761 17.3515 21.6781 17.3337 21.6806 17.3096C21.6857 17.2615 21.693 17.1886 21.7014 17.0933C21.7183 16.9027 21.7395 16.6232 21.7562 16.2749C21.7895 15.5771 21.8042 14.609 21.7302 13.529C21.5795 11.3314 21.0706 8.82913 19.7562 7.13918C18.6102 5.66578 17.0137 4.71348 15.6626 4.12641C14.9925 3.83523 14.3971 3.64008 13.9715 3.51832C13.7592 3.45756 13.5901 3.41537 13.4766 3.38883C13.4199 3.37557 13.3771 3.36624 13.3498 3.36047C13.3361 3.35759 13.3263 3.35559 13.3206 3.35444L13.3154 3.35341C12.8588 3.2661 12.5593 2.82527 12.6463 2.36857C12.7334 1.91172 13.1744 1.61198 13.6313 1.69908L13.4735 2.52629C13.6313 1.69908 13.6318 1.69919 13.6318 1.69919L13.634 1.69962L13.6384 1.70047L13.652 1.70316C13.6631 1.7054 13.6785 1.70853 13.6978 1.71261C13.7364 1.72076 13.7909 1.7327 13.8599 1.74882C13.9978 1.78105 14.1936 1.83007 14.4348 1.89909C14.9165 2.03692 15.5834 2.25565 16.3338 2.58172C17.6106 3.13653 19.1717 4.02047 20.4637 5.38238C20.6903 5.15927 20.9366 4.93258 21.2369 4.69919C21.8377 4.23228 22.6538 3.73272 24.0438 3.03651C24.9681 2.57356 25.9448 2.6041 26.8169 2.84115C27.6822 3.07637 28.5006 3.52815 29.1869 3.99589C29.7251 4.36264 30.2041 4.7544 30.5874 5.09462L30.6592 4.88601C30.8106 4.44628 31.2899 4.21258 31.7296 4.36403Z" fill="#5E7417"/>
  <path fill-rule="evenodd" clip-rule="evenodd" d="M32.2784 20.0805C32.3622 20.3398 32.3154 20.6238 32.1527 20.8424L30.0913 23.6125C29.8137 23.9856 29.2861 24.063 28.913 23.7853C28.5399 23.5077 28.4625 22.9801 28.7402 22.607L30.0946 20.7869L8.17586 13.8785C7.73228 13.7387 7.48603 13.2658 7.62584 12.8222C7.76565 12.3786 8.23857 12.1324 8.68214 12.2722L31.7303 19.5365C31.9902 19.6185 32.1945 19.8212 32.2784 20.0805Z" fill="#5E7417"/>
  <path fill-rule="evenodd" clip-rule="evenodd" d="M24.6459 10.3389C25.0982 10.2306 25.5526 10.5095 25.6609 10.9618L27.4244 18.3263C27.4817 18.5655 27.4315 18.8177 27.2871 19.0168L22.3425 25.8334C22.1176 26.1434 21.7118 26.2626 21.3549 26.1235L10.7973 22.007C10.364 21.8381 10.1497 21.3498 10.3186 20.9165C10.4876 20.4832 10.9758 20.2689 11.4091 20.4379L21.3609 24.3181L25.6963 18.3416L24.023 11.354C23.9147 10.9017 24.1936 10.4472 24.6459 10.3389Z" fill="#5E7417"/>
  <path fill-rule="evenodd" clip-rule="evenodd" d="M7.99658 13.818C5.65595 13.0259 3.11631 14.2811 2.32414 16.6218C2.03331 17.4811 2.01836 18.3647 2.2308 19.1799C2.34809 19.6299 2.07834 20.0898 1.62829 20.2071C1.17824 20.3244 0.718317 20.0547 0.601025 19.6046C0.30824 18.4812 0.329441 17.2619 0.728818 16.0818C1.81918 12.8601 5.3148 11.1323 8.53651 12.2227C11.7582 13.3131 13.486 16.8087 12.3957 20.0304C11.848 21.6487 10.6919 22.8909 9.27095 23.5869C8.85328 23.7914 8.34885 23.6187 8.14428 23.201C7.93971 22.7833 8.11247 22.2789 8.53015 22.0743C9.56457 21.5677 10.4023 20.6665 10.8003 19.4905C11.5925 17.1498 10.3372 14.6102 7.99658 13.818Z" fill="#5E7417"/>
  <path fill-rule="evenodd" clip-rule="evenodd" d="M28.2629 24.5758C25.5845 27.3368 21.8347 29.0526 17.6842 29.0526C9.54528 29.0526 2.94737 22.4547 2.94737 14.3158C2.94737 9.10928 5.64739 4.53337 9.72363 1.9119C4.02881 4.16194 0 9.71575 0 16.2105C0 24.6983 6.88068 31.579 15.3684 31.579C20.771 31.579 25.5225 28.7912 28.2629 24.5758Z" fill="#122453"/>
  <circle cx="26.1064" cy="18.5274" r="2.10526" transform="rotate(-37.0178 26.1064 18.5274)" fill="#122453"/>
  <circle cx="11.3696" cy="14.7379" r="2.10526" transform="rotate(-37.0178 11.3696 14.7379)" fill="#122453"/>
  <circle cx="11.3696" cy="14.7379" r="2.10526" transform="rotate(-37.0178 11.3696 14.7379)" fill="#122453"/>
  <circle cx="13.4323" cy="2.06391" r="1.47368" transform="rotate(-37.0178 13.4323 2.06391)" fill="#122453"/>
  <circle cx="21.4738" cy="24.8421" r="1.68421" fill="#122453"/>
  <circle cx="11.3685" cy="21.0526" r="1.68421" fill="#122453"/>
  <circle cx="10.0639" cy="4.59023" r="1.47368" transform="rotate(-37.0178 10.0639 4.59023)" fill="#122453"/>
  <path d="M8.2933 6.65034C8.78331 7.3002 8.65374 8.22424 8.00389 8.71426C7.35403 9.20427 6.42999 9.0747 5.93997 8.42485C5.44996 7.77499 5.57953 6.85095 6.22938 6.36093C6.87924 5.87092 7.80328 6.00049 8.2933 6.65034Z" fill="#122453"/>
</svg>