<svg xmlns="http://www.w3.org/2000/svg" width="54" height="16" viewBox="0 0 54 16" fill="none">
  <path d="M49.9141 12.16C49.0608 12.16 48.3141 11.9787 47.6741 11.616C47.0341 11.2533 46.5328 10.7573 46.1701 10.128C45.8181 9.48801 45.6421 8.75201 45.6421 7.92C45.6421 6.99201 45.8234 6.20267 46.1861 5.552C46.5594 4.89067 47.0394 4.38934 47.6261 4.04801C48.2234 3.696 48.8528 3.52 49.5141 3.52C50.0048 3.52 50.4794 3.61067 50.9381 3.792C51.3968 3.97334 51.8021 4.24 52.1541 4.592C52.5061 4.93334 52.7888 5.34934 53.0021 5.84C53.2154 6.32001 53.3274 6.85867 53.3381 7.456C53.3381 7.62667 53.2741 7.77067 53.1461 7.88801C53.0181 8.00534 52.8688 8.064 52.6981 8.064H46.3781L46.0901 6.96H52.2501L51.9941 7.184V6.832C51.9514 6.39467 51.8021 6.02134 51.5461 5.712C51.3008 5.392 50.9968 5.14667 50.6341 4.976C50.2821 4.80534 49.9088 4.72 49.5141 4.72C49.1941 4.72 48.8741 4.77867 48.5541 4.896C48.2448 5.00267 47.9621 5.184 47.7061 5.44C47.4608 5.68534 47.2581 6.00534 47.0981 6.4C46.9488 6.79467 46.8741 7.26934 46.8741 7.824C46.8741 8.44267 46.9968 8.98667 47.2421 9.456C47.4981 9.92534 47.8501 10.2987 48.2981 10.576C48.7461 10.8427 49.2688 10.976 49.8661 10.976C50.2394 10.976 50.5648 10.928 50.8421 10.832C51.1194 10.736 51.3594 10.6187 51.5621 10.48C51.7648 10.3307 51.9354 10.1813 52.0741 10.032C52.2128 9.936 52.3461 9.88801 52.4741 9.88801C52.6341 9.88801 52.7621 9.94134 52.8581 10.048C52.9648 10.1547 53.0181 10.2827 53.0181 10.432C53.0181 10.6133 52.9328 10.7733 52.7621 10.912C52.4634 11.2427 52.0581 11.536 51.5461 11.792C51.0341 12.0373 50.4901 12.16 49.9141 12.16Z" fill="#C0D466"/>
  <path d="M38.0481 10.688C37.9521 10.5493 37.9094 10.4053 37.9201 10.256C37.9307 10.096 38.0214 9.95734 38.1921 9.84C38.2987 9.76534 38.4214 9.73334 38.5601 9.744C38.7094 9.75467 38.8427 9.824 38.9601 9.952C39.2587 10.304 39.6001 10.5867 39.9841 10.8C40.3681 11.0027 40.8374 11.104 41.3921 11.104C41.6481 11.0933 41.9041 11.0507 42.1601 10.976C42.4161 10.9013 42.6294 10.7733 42.8001 10.592C42.9814 10.4 43.0721 10.1493 43.0721 9.84C43.0721 9.54134 42.9814 9.30667 42.8001 9.136C42.6187 8.95467 42.3841 8.81067 42.0961 8.704C41.8081 8.58667 41.4934 8.48534 41.1521 8.4C40.8001 8.304 40.4534 8.19734 40.1121 8.08C39.7707 7.952 39.4614 7.79734 39.1841 7.616C38.9174 7.424 38.6987 7.18934 38.5281 6.912C38.3681 6.624 38.2881 6.27734 38.2881 5.872C38.2881 5.392 38.4161 4.976 38.6721 4.624C38.9387 4.272 39.2907 4 39.7281 3.808C40.1761 3.616 40.6614 3.52 41.1841 3.52C41.4827 3.52 41.7921 3.55734 42.1121 3.632C42.4427 3.696 42.7627 3.81334 43.0721 3.984C43.3814 4.144 43.6534 4.368 43.8881 4.656C43.9841 4.76267 44.0374 4.896 44.0481 5.056C44.0587 5.216 43.9894 5.36 43.8401 5.488C43.7227 5.57334 43.5894 5.61067 43.4401 5.60001C43.3014 5.58934 43.1841 5.536 43.0881 5.44C42.8641 5.17334 42.5814 4.97067 42.2401 4.832C41.9094 4.68267 41.5414 4.608 41.1361 4.608C40.8801 4.608 40.6294 4.64534 40.3841 4.72C40.1387 4.79467 39.9307 4.92267 39.7601 5.104C39.6001 5.27467 39.5201 5.51467 39.5201 5.824C39.5307 6.112 39.6267 6.34667 39.8081 6.528C39.9894 6.70934 40.2347 6.85867 40.5441 6.976C40.8534 7.08267 41.1947 7.18934 41.5681 7.296C41.9094 7.38134 42.2347 7.48267 42.5441 7.60001C42.8641 7.70667 43.1521 7.85067 43.4081 8.032C43.6641 8.21334 43.8667 8.448 44.0161 8.736C44.1654 9.01334 44.2401 9.36534 44.2401 9.792C44.2401 10.2827 44.1014 10.7093 43.8241 11.072C43.5467 11.424 43.1787 11.696 42.7201 11.888C42.2721 12.0693 41.7867 12.16 41.2641 12.16C40.6774 12.16 40.0961 12.048 39.5201 11.824C38.9547 11.6 38.4641 11.2213 38.0481 10.688Z" fill="#C0D466"/>
  <path d="M35.4998 3.648C35.6812 3.648 35.8305 3.712 35.9478 3.84C36.0758 3.95734 36.1398 4.10667 36.1398 4.288V11.344C36.1398 11.5253 36.0758 11.68 35.9478 11.808C35.8305 11.936 35.6812 12 35.4998 12C35.3078 12 35.1532 11.936 35.0358 11.808C34.9185 11.68 34.8598 11.5253 34.8598 11.344V9.824L35.1638 9.792C35.1638 10.0267 35.0838 10.2827 34.9238 10.56C34.7638 10.8373 34.5452 11.0987 34.2678 11.344C33.9905 11.5787 33.6598 11.776 33.2758 11.936C32.9025 12.0853 32.4972 12.16 32.0598 12.16C31.3345 12.16 30.6838 11.9733 30.1078 11.6C29.5318 11.216 29.0732 10.6987 28.7318 10.048C28.4012 9.39734 28.2358 8.656 28.2358 7.824C28.2358 6.98134 28.4012 6.24001 28.7318 5.60001C29.0732 4.94934 29.5318 4.44267 30.1078 4.08C30.6838 3.70667 31.3238 3.52 32.0278 3.52C32.4865 3.52 32.9132 3.59467 33.3078 3.744C33.7025 3.89334 34.0438 4.096 34.3318 4.352C34.6305 4.608 34.8598 4.89067 35.0198 5.2C35.1905 5.50934 35.2758 5.81867 35.2758 6.12801L34.8598 6.032V4.288C34.8598 4.10667 34.9185 3.95734 35.0358 3.84C35.1532 3.712 35.3078 3.648 35.4998 3.648ZM32.2038 10.976C32.7372 10.976 33.2065 10.8373 33.6118 10.56C34.0278 10.2827 34.3478 9.90934 34.5718 9.44C34.8065 8.96 34.9238 8.42134 34.9238 7.824C34.9238 7.23734 34.8065 6.70934 34.5718 6.24C34.3478 5.76 34.0278 5.38667 33.6118 5.12C33.2065 4.84267 32.7372 4.704 32.2038 4.704C31.6812 4.704 31.2118 4.83734 30.7958 5.104C30.3905 5.37067 30.0705 5.73867 29.8358 6.208C29.6012 6.67734 29.4838 7.216 29.4838 7.824C29.4838 8.42134 29.5958 8.96 29.8198 9.44C30.0545 9.90934 30.3745 10.2827 30.7798 10.56C31.1958 10.8373 31.6705 10.976 32.2038 10.976Z" fill="#C0D466"/>
  <path d="M22.1715 3.52C22.6301 3.52 23.0568 3.6 23.4515 3.76C23.8461 3.90934 24.1875 4.10667 24.4755 4.352C24.7741 4.59734 25.0035 4.85334 25.1635 5.12C25.3341 5.38667 25.4195 5.63734 25.4195 5.872L25.1155 5.68001V4.288C25.1155 4.10667 25.1741 3.95734 25.2915 3.84C25.4088 3.712 25.5635 3.648 25.7555 3.648C25.9368 3.648 26.0861 3.712 26.2035 3.84C26.3315 3.95734 26.3955 4.10667 26.3955 4.288V11.296C26.3955 12.1707 26.2088 12.896 25.8355 13.472C25.4728 14.048 24.9821 14.48 24.3635 14.768C23.7448 15.056 23.0515 15.2 22.2835 15.2C21.9635 15.2 21.6115 15.1573 21.2275 15.072C20.8435 14.9867 20.5021 14.88 20.2035 14.752C19.9048 14.6347 19.7128 14.512 19.6275 14.384C19.4675 14.2773 19.3661 14.1547 19.3235 14.016C19.2915 13.888 19.3181 13.7653 19.4035 13.648C19.4995 13.4987 19.6221 13.424 19.7715 13.424C19.9315 13.424 20.1288 13.472 20.3635 13.568C20.4595 13.6 20.6088 13.6533 20.8115 13.728C21.0248 13.8027 21.2595 13.8667 21.5155 13.92C21.7821 13.984 22.0435 14.016 22.2995 14.016C23.2061 14.016 23.8995 13.776 24.3795 13.296C24.8701 12.8267 25.1155 12.2027 25.1155 11.424V9.936L25.2915 10.016C25.2275 10.3147 25.0941 10.592 24.8915 10.848C24.6995 11.104 24.4595 11.3333 24.1715 11.536C23.8941 11.728 23.5848 11.8827 23.2435 12C22.9021 12.1067 22.5555 12.16 22.2035 12.16C21.4568 12.16 20.7848 11.9733 20.1875 11.6C19.5901 11.2267 19.1155 10.7147 18.7635 10.064C18.4221 9.41334 18.2515 8.67201 18.2515 7.84C18.2515 6.99734 18.4221 6.25067 18.7635 5.60001C19.1155 4.94934 19.5848 4.44267 20.1715 4.08C20.7688 3.70667 21.4355 3.52 22.1715 3.52ZM22.3315 4.704C21.7875 4.704 21.2968 4.84267 20.8595 5.12C20.4328 5.38667 20.0968 5.75467 19.8515 6.224C19.6168 6.69334 19.4995 7.23201 19.4995 7.84C19.4995 8.42667 19.6168 8.96 19.8515 9.44C20.0968 9.90934 20.4328 10.2827 20.8595 10.56C21.2968 10.8373 21.7875 10.976 22.3315 10.976C22.8861 10.976 23.3768 10.8427 23.8035 10.576C24.2301 10.2987 24.5661 9.92534 24.8115 9.456C25.0568 8.98667 25.1795 8.44801 25.1795 7.84C25.1795 7.22134 25.0568 6.67734 24.8115 6.208C24.5661 5.73867 24.2301 5.37067 23.8035 5.104C23.3768 4.83734 22.8861 4.704 22.3315 4.704Z" fill="#C0D466"/>
  <path d="M13.4297 12.16C12.5764 12.16 11.8297 11.9787 11.1897 11.616C10.5497 11.2533 10.0484 10.7573 9.68571 10.128C9.33371 9.488 9.15771 8.752 9.15771 7.92C9.15771 6.992 9.33905 6.20267 9.70171 5.552C10.075 4.89067 10.555 4.38933 11.1417 4.048C11.739 3.696 12.3684 3.52 13.0297 3.52C13.5204 3.52 13.995 3.61067 14.4537 3.792C14.9124 3.97333 15.3177 4.24 15.6697 4.592C16.0217 4.93333 16.3044 5.34933 16.5177 5.84C16.731 6.32 16.843 6.85866 16.8537 7.456C16.8537 7.62667 16.7897 7.77067 16.6617 7.888C16.5337 8.00533 16.3844 8.064 16.2137 8.064H9.89371L9.60571 6.96H15.7657L15.5097 7.184V6.832C15.467 6.39467 15.3177 6.02133 15.0617 5.712C14.8164 5.392 14.5124 5.14667 14.1497 4.976C13.7977 4.80533 13.4244 4.72 13.0297 4.72C12.7097 4.72 12.3897 4.77867 12.0697 4.896C11.7604 5.00267 11.4777 5.184 11.2217 5.44C10.9764 5.68533 10.7737 6.00533 10.6137 6.4C10.4644 6.79467 10.3897 7.26933 10.3897 7.824C10.3897 8.44267 10.5124 8.98666 10.7577 9.456C11.0137 9.92533 11.3657 10.2987 11.8137 10.576C12.2617 10.8427 12.7844 10.976 13.3817 10.976C13.755 10.976 14.0804 10.928 14.3577 10.832C14.635 10.736 14.875 10.6187 15.0777 10.48C15.2804 10.3307 15.451 10.1813 15.5897 10.032C15.7284 9.936 15.8617 9.888 15.9897 9.888C16.1497 9.888 16.2777 9.94133 16.3737 10.048C16.4804 10.1547 16.5337 10.2827 16.5337 10.432C16.5337 10.6133 16.4484 10.7733 16.2777 10.912C15.979 11.2427 15.5737 11.536 15.0617 11.792C14.5497 12.0373 14.0057 12.16 13.4297 12.16ZM12.9497 3.072C12.875 3.072 12.795 3.04 12.7097 2.976C12.635 2.912 12.5977 2.82666 12.5977 2.72C12.5977 2.64533 12.6297 2.56 12.6937 2.464L13.6537 0.895999C13.7177 0.789332 13.803 0.687998 13.9097 0.591998C14.0164 0.495998 14.1444 0.447998 14.2937 0.447998C14.507 0.447998 14.667 0.506665 14.7737 0.623999C14.8804 0.730665 14.9337 0.874665 14.9337 1.056C14.923 1.14133 14.9017 1.22133 14.8697 1.296C14.8377 1.37066 14.7897 1.45066 14.7257 1.536L13.5097 2.816C13.435 2.90133 13.3444 2.96533 13.2377 3.008C13.1417 3.05067 13.0457 3.072 12.9497 3.072Z" fill="#C0D466"/>
  <path d="M4.79196 0.800003C5.37863 0.800003 5.90663 0.944003 6.37596 1.232C6.84529 1.52 7.21329 1.91467 7.47996 2.416C7.75729 2.91734 7.89596 3.488 7.89596 4.128C7.89596 4.75734 7.75729 5.328 7.47996 5.84C7.21329 6.352 6.84529 6.75734 6.37596 7.056C5.90663 7.35467 5.37863 7.504 4.79196 7.504H1.54396L1.65596 7.312V11.344C1.65596 11.5253 1.59729 11.68 1.47996 11.808C1.36263 11.936 1.21329 12 1.03196 12C0.839959 12 0.685292 11.936 0.567959 11.808C0.461292 11.68 0.407959 11.5253 0.407959 11.344V1.44C0.407959 1.25867 0.466626 1.10934 0.583959 0.992003C0.711959 0.864003 0.866626 0.800003 1.04796 0.800003H4.79196ZM4.79196 6.272C5.14396 6.272 5.45329 6.176 5.71996 5.984C5.98663 5.792 6.19996 5.53067 6.35996 5.2C6.51996 4.86934 6.59996 4.512 6.59996 4.128C6.59996 3.72267 6.51996 3.36534 6.35996 3.056C6.19996 2.74667 5.98663 2.50134 5.71996 2.32C5.45329 2.128 5.14396 2.032 4.79196 2.032H1.54396L1.65596 1.856V6.432L1.54396 6.272H4.79196Z" fill="#C0D466"/>
</svg>